<svg width="350.5" height="70" viewBox="0 0 350.5 70" xmlns="http://www.w3.org/2000/svg"><g id="svgGroup" stroke-linecap="round" fill-rule="evenodd" font-size="9pt" stroke="#000" stroke-width="0" fill="#e50914" style="stroke:#000;stroke-width:0;fill:#e50914"><path d="M 312.1 70 L 324.8 34.2 L 312.7 0 L 324.3 0 L 331.7 22.6 L 331.9 22.6 L 339.5 0 L 349.9 0 L 337.8 34.2 L 350.5 70 L 338.9 70 L 330.9 45.6 L 330.7 45.6 L 322.5 70 L 312.1 70 Z M 40.4 70 L 40.4 0 L 70.4 0 L 70.4 10 L 51.4 10 L 51.4 28.5 L 66.5 28.5 L 66.5 38.5 L 51.4 38.5 L 51.4 60 L 70.4 60 L 70.4 70 L 40.4 70 Z M 150.5 70 L 150.5 0 L 180.5 0 L 180.5 10 L 161.5 10 L 161.5 28.5 L 176.6 28.5 L 176.6 38.5 L 161.5 38.5 L 161.5 60 L 180.5 60 L 180.5 70 L 150.5 70 Z M 186.8 70 L 186.8 0 L 203.1 0 A 29.066 29.066 0 0 1 207.517 0.313 Q 209.844 0.672 211.691 1.442 A 11.489 11.489 0 0 1 215.5 3.95 Q 219.4 7.9 219.4 16.1 L 219.4 20.4 A 25.259 25.259 0 0 1 218.978 25.211 Q 218.463 27.857 217.32 29.806 A 10.176 10.176 0 0 1 212.2 34.2 L 212.2 34.4 A 9.225 9.225 0 0 1 215.434 36.075 A 8.631 8.631 0 0 1 217.85 39.3 A 16.431 16.431 0 0 1 218.855 42.427 Q 219.5 45.325 219.5 49.2 L 219.5 61.5 Q 219.5 64.434 219.691 66.268 A 21.93 21.93 0 0 0 219.7 66.35 A 12.134 12.134 0 0 0 220.651 69.888 A 13.583 13.583 0 0 0 220.7 70 L 209.5 70 A 18.152 18.152 0 0 1 208.975 68.251 A 13.945 13.945 0 0 1 208.7 66.8 A 14.955 14.955 0 0 1 208.614 65.917 Q 208.505 64.413 208.5 61.666 A 147.151 147.151 0 0 1 208.5 61.4 L 208.5 48.6 Q 208.5 43.8 206.95 41.9 A 4.556 4.556 0 0 0 205.083 40.569 Q 204.315 40.258 203.345 40.117 A 12.174 12.174 0 0 0 201.6 40 L 197.8 40 L 197.8 70 L 186.8 70 Z M 227.1 70 L 227.1 0 L 256.2 0 L 256.2 10 L 238.1 10 L 238.1 29.5 L 252.3 29.5 L 252.3 39.5 L 238.1 39.5 L 238.1 70 L 227.1 70 Z M 85.3 70 L 85.3 10 L 73.8 10 L 73.8 0 L 107.8 0 L 107.8 10 L 96.3 10 L 96.3 70 L 85.3 70 Z M 122.7 70 L 122.7 10 L 111.2 10 L 111.2 0 L 145.2 0 L 145.2 10 L 133.7 10 L 133.7 70 L 122.7 70 Z M 0 70 L 0 0 L 16.6 0 A 29.066 29.066 0 0 1 21.017 0.313 Q 23.344 0.672 25.191 1.442 A 11.489 11.489 0 0 1 29 3.95 Q 32.9 7.9 32.9 16.1 L 32.9 18.9 A 27.503 27.503 0 0 1 32.693 22.377 Q 32.459 24.213 31.959 25.745 A 13.238 13.238 0 0 1 31.15 27.7 Q 29.4 31.1 25.8 32.6 L 25.8 32.8 A 11.171 11.171 0 0 1 33.138 40.695 Q 33.785 42.855 33.946 45.547 A 30.947 30.947 0 0 1 34 47.4 L 34 53.4 Q 34 59.264 31.773 63.11 A 12.751 12.751 0 0 1 29.75 65.75 A 13.54 13.54 0 0 1 24.12 69.067 Q 21.981 69.738 19.393 69.927 A 28.779 28.779 0 0 1 17.3 70 L 0 70 Z M 261.5 70 L 261.5 0 L 272.5 0 L 272.5 60 L 290.6 60 L 290.6 70 L 261.5 70 Z M 295.9 70 L 295.9 0 L 306.9 0 L 306.9 70 L 295.9 70 Z M 11 60 L 17.3 60 A 8.64 8.64 0 0 0 18.89 59.864 Q 20.616 59.54 21.6 58.45 A 4.349 4.349 0 0 0 22.397 57.119 Q 22.905 55.835 22.985 53.865 A 18.793 18.793 0 0 0 23 53.1 L 23 47 Q 23 42.2 21.35 40.35 Q 20.095 38.943 17.595 38.606 A 12.724 12.724 0 0 0 15.9 38.5 L 11 38.5 L 11 60 Z M 197.8 30 L 201.8 30 Q 205.1 30 206.75 28.3 Q 208.4 26.6 208.4 22.6 L 208.4 17.2 Q 208.4 13.816 207.329 12.097 A 4.26 4.26 0 0 0 207.05 11.7 A 4.239 4.239 0 0 0 204.9 10.281 Q 204.18 10.062 203.303 10.014 A 9.216 9.216 0 0 0 202.8 10 L 197.8 10 L 197.8 30 Z M 11 28.5 L 15.3 28.5 Q 18.6 28.5 20.25 26.8 Q 21.9 25.1 21.9 21.1 L 21.9 17.2 Q 21.9 13.816 20.829 12.097 A 4.26 4.26 0 0 0 20.55 11.7 A 4.239 4.239 0 0 0 18.4 10.281 Q 17.68 10.062 16.803 10.014 A 9.216 9.216 0 0 0 16.3 10 L 11 10 L 11 28.5 Z" vector-effect="non-scaling-stroke"/></g></svg>